<?xml version="1.0" encoding="UTF-8"?>
<svg xmlns="http://www.w3.org/2000/svg" viewBox="0 0 2000 1800">
  <defs>
    <filter id="shadow" x="-10%" y="-10%" width="120%" height="120%">
      <feDropShadow dx="0" dy="4" stdDeviation="15" flood-color="#00000020"/>
    </filter>
    <filter id="shadow-sm" x="-5%" y="-5%" width="110%" height="110%">
      <feDropShadow dx="0" dy="2" stdDeviation="6" flood-color="#00000010"/>
    </filter>
    
    <!-- Mountain gradients -->
    <linearGradient id="peak-main" x1="0%" y1="0%" x2="0%" y2="100%">
      <stop offset="0%" stop-color="#FFFFFF"/>
      <stop offset="40%" stop-color="#E8F4F8"/>
      <stop offset="100%" stop-color="#B8D4E3"/>
    </linearGradient>
    
    <linearGradient id="peak-far" x1="0%" y1="0%" x2="0%" y2="100%">
      <stop offset="0%" stop-color="#C5DDE8"/>
      <stop offset="100%" stop-color="#8BAFC1"/>
    </linearGradient>
    
    <linearGradient id="peak-near" x1="0%" y1="0%" x2="0%" y2="100%">
      <stop offset="0%" stop-color="#D4E8F0"/>
      <stop offset="60%" stop-color="#9EC5D9"/>
      <stop offset="100%" stop-color="#6B9DB5"/>
    </linearGradient>
    
    <linearGradient id="sky" x1="0%" y1="0%" x2="0%" y2="100%">
      <stop offset="0%" stop-color="#1A3A52"/>
      <stop offset="30%" stop-color="#2D5A7B"/>
      <stop offset="60%" stop-color="#4A7C9B"/>
      <stop offset="100%" stop-color="#7FB3D3"/>
    </linearGradient>
    
    <linearGradient id="snow-ground" x1="0%" y1="0%" x2="0%" y2="100%">
      <stop offset="0%" stop-color="#E8F4F8"/>
      <stop offset="50%" stop-color="#D4E8F0"/>
      <stop offset="100%" stop-color="#B8D4E3"/>
    </linearGradient>
    
    <radialGradient id="moon-glow" cx="50%" cy="50%" r="50%">
      <stop offset="0%" stop-color="#FFFDE7"/>
      <stop offset="70%" stop-color="#FFF9C4"/>
      <stop offset="100%" stop-color="#FFF59D" stop-opacity="0"/>
    </radialGradient>
    
    <radialGradient id="cloud" cx="30%" cy="30%" r="70%">
      <stop offset="0%" stop-color="#FFFFFF"/>
      <stop offset="100%" stop-color="#E8F4F8"/>
    </radialGradient>
    
    <linearGradient id="tent" x1="0%" y1="0%" x2="100%" y2="100%">
      <stop offset="0%" stop-color="#E74C3C"/>
      <stop offset="100%" stop-color="#C0392B"/>
    </linearGradient>
    
    <radialGradient id="star" cx="50%" cy="50%" r="50%">
      <stop offset="0%" stop-color="#FFFFFF"/>
      <stop offset="100%" stop-color="#FFFDE7"/>
    </radialGradient>
  </defs>
  
  <!-- Background -->
  <rect width="2000" height="1800" fill="#1A3A52"/>
  
  <!-- Stars - Layer 1 -->
  <g fill="url(#star)">
    <circle cx="150" cy="80" r="2"/>
    <circle cx="320" cy="120" r="1.5"/>
    <circle cx="580" cy="60" r="2"/>
    <circle cx="750" cy="140" r="1.5"/>
    <circle cx="920" cy="90" r="2"/>
    <circle cx="1100" cy="50" r="1.5"/>
    <circle cx="1280" cy="130" r="2"/>
    <circle cx="1450" cy="70" r="1.5"/>
    <circle cx="1620" cy="110" r="2"/>
    <circle cx="1800" cy="85" r="1.5"/>
    <circle cx="230" cy="180" r="1"/>
    <circle cx="480" cy="200" r="1.5"/>
    <circle cx="680" cy="170" r="1"/>
    <circle cx="1020" cy="190" r="1.5"/>
    <circle cx="1200" cy="160" r="1"/>
    <circle cx="1380" cy="200" r="1.5"/>
    <circle cx="1580" cy="175" r="1"/>
    <circle cx="1750" cy="195" r="1.5"/>
    <circle cx="100" cy="250" r="1"/>
    <circle cx="400" cy="280" r="1.5"/>
    <circle cx="850" cy="240" r="1"/>
    <circle cx="1350" cy="270" r="1.5"/>
    <circle cx="1700" cy="250" r="1"/>
  </g>
  
  <!-- Stars - Layer 2 (small) -->
  <g fill="#FFFFFF" fill-opacity="0.6">
    <circle cx="80" cy="150" r="0.8"/>
    <circle cx="200" cy="100" r="0.6"/>
    <circle cx="380" cy="180" r="0.8"/>
    <circle cx="520" cy="130" r="0.6"/>
    <circle cx="650" cy="95" r="0.8"/>
    <circle cx="800" cy="165" r="0.6"/>
    <circle cx="980" cy="140" r="0.8"/>
    <circle cx="1150" cy="105" r="0.6"/>
    <circle cx="1320" cy="175" r="0.8"/>
    <circle cx="1500" cy="125" r="0.6"/>
    <circle cx="1680" cy="160" r="0.8"/>
    <circle cx="1850" cy="130" r="0.6"/>
    <circle cx="300" cy="220" r="0.5"/>
    <circle cx="600" cy="250" r="0.6"/>
    <circle cx="900" cy="210" r="0.5"/>
    <circle cx="1250" cy="230" r="0.6"/>
    <circle cx="1550" cy="220" r="0.5"/>
  </g>
  
  <!-- Moon -->
  <circle cx="1650" cy="150" r="60" fill="url(#moon-glow)"/>
  <circle cx="1650" cy="150" r="45" fill="#FFFDE7"/>
  <circle cx="1670" cy="145" r="38" fill="#2D5A7B"/>
  
  <!-- Aurora -->
  <g fill="none" stroke-linecap="round">
    <path d="M0 300 Q200 250 400 280 T800 260 T1200 290 T1600 250 T2000 280" stroke="#4ECDC4" stroke-width="3" stroke-opacity="0.3"/>
    <path d="M0 320 Q250 280 500 310 T1000 280 T1500 320 T2000 290" stroke="#81ECEC" stroke-width="2" stroke-opacity="0.2"/>
    <path d="M0 340 Q300 300 600 330 T1200 300 T1800 340 T2000 310" stroke="#74B9FF" stroke-width="2" stroke-opacity="0.25"/>
  </g>
  
  <!-- Far Mountains - Layer 3 -->
  <path d="M0 700 L100 620 L200 680 L350 580 L500 650 L650 520 L800 600 L950 480 L1100 560 L1250 450 L1400 530 L1550 420 L1700 500 L1850 440 L2000 520 L2000 800 L0 800 Z" fill="url(#peak-far)" fill-opacity="0.5"/>
  
  <!-- Far Mountains - Layer 2 -->
  <path d="M0 750 L80 680 L180 720 L300 620 L450 700 L580 580 L720 660 L880 540 L1050 630 L1200 520 L1380 600 L1550 500 L1720 580 L1880 510 L2000 590 L2000 850 L0 850 Z" fill="url(#peak-far)" fill-opacity="0.7"/>
  
  <!-- Mid Mountains -->
  <path d="M0 800 L100 720 L220 770 L380 650 L520 730 L680 600 L850 680 L1020 560 L1200 650 L1400 540 L1580 620 L1750 530 L1920 600 L2000 560 L2000 900 L0 900 Z" fill="url(#peak-near)"/>
  
  <!-- Main Peak -->
  <path d="M200 900 L450 580 L580 680 L700 500 L850 620 L950 480 L1050 580 L1150 420 L1250 550 L1400 480 L1600 620 L1800 550 L2000 700 L2000 950 L0 950 Z" fill="url(#peak-main)"/>
  
  <!-- Snow Cornices -->
  <path d="M700 500 L720 530 L750 515 L780 545 L820 525 L860 560 L900 540 L950 480" fill="none" stroke="#FFFFFF" stroke-width="3" stroke-linecap="round"/>
  <path d="M1150 420 L1180 455 L1220 440 L1260 470 L1300 450 L1350 485 L1400 480" fill="none" stroke="#FFFFFF" stroke-width="2.5" stroke-linecap="round"/>
  
  <!-- Snow Details -->
  <path d="M500 680 Q550 660 600 675 Q650 655 700 670" fill="none" stroke="#FFFFFF" stroke-width="1.5" stroke-opacity="0.6"/>
  <path d="M900 580 Q950 560 1000 575 Q1050 555 1100 570" fill="none" stroke="#FFFFFF" stroke-width="1.5" stroke-opacity="0.6"/>
  <path d="M1300 540 Q1350 520 1400 535 Q1450 515 1500 530" fill="none" stroke="#FFFFFF" stroke-width="1.5" stroke-opacity="0.6"/>
  
  <!-- Cloud Sea -->
  <g fill="url(#cloud)" fill-opacity="0.8">
    <ellipse cx="200" cy="780" rx="120" ry="35"/>
    <ellipse cx="140" cy="800" rx="80" ry="30"/>
    <ellipse cx="280" cy="795" rx="90" ry="32"/>
    <ellipse cx="200" cy="810" rx="100" ry="25"/>
    
    <ellipse cx="900" cy="760" rx="150" ry="40"/>
    <ellipse cx="820" cy="785" rx="100" ry="35"/>
    <ellipse cx="1000" cy="780" rx="110" ry="38"/>
    <ellipse cx="900" cy="800" rx="130" ry="30"/>
    
    <ellipse cx="1600" cy="770" rx="130" ry="38"/>
    <ellipse cx="1520" cy="795" rx="90" ry="32"/>
    <ellipse cx="1700" cy="785" rx="100" ry="35"/>
    <ellipse cx="1600" cy="805" rx="115" ry="28"/>
  </g>
  
  <!-- Snow Ground -->
  <rect x="0" y="900" width="2000" height="900" fill="url(#snow-ground)"/>
  
  <!-- Snow Texture -->
  <g stroke="#B8D4E3" stroke-width="1" fill="none" stroke-opacity="0.5">
    <path d="M0 950 Q500 940 1000 955 T2000 950"/>
    <path d="M0 1020 Q400 1010 800 1025 T1600 1015 T2000 1020"/>
    <path d="M0 1100 Q600 1085 1200 1095 T2000 1100"/>
  </g>
  
  <!-- Snow Reflection -->
  <g fill="#FFFFFF" fill-opacity="0.3">
    <ellipse cx="400" cy="1000" rx="200" ry="20"/>
    <ellipse cx="1200" cy="1050" rx="300" ry="25"/>
    <ellipse cx="1600" cy="980" rx="250" ry="18"/>
  </g>
  
  <!-- Tent -->
  <g transform="translate(300, 1000)">
    <path d="M0 80 L60 0 L120 80 Z" fill="url(#tent)"/>
    <path d="M0 80 L60 0 L120 80 Z" fill="none" stroke="#922B21" stroke-width="1"/>
    <path d="M45 80 L60 40 L75 80 Z" fill="#1A3A52"/>
    <path d="M45 80 L60 50" stroke="#C0392B" stroke-width="1" fill="none"/>
    <line x1="0" y1="80" x2="-15" y2="95" stroke="#7F8C8D" stroke-width="1"/>
    <line x1="120" y1="80" x2="135" y2="95" stroke="#7F8C8D" stroke-width="1"/>
    <line x1="60" y1="0" x2="60" y2="-10" stroke="#7F8C8D" stroke-width="2"/>
  </g>
  
  <!-- Hiker 1 - Climbing -->
  <g transform="translate(750, 780)" fill="#2C3E50">
    <ellipse cx="0" cy="0" rx="6" ry="12"/>
    <circle cx="0" cy="-18" r="7"/>
    <rect x="4" y="-8" width="8" height="14" rx="2"/>
    <path d="M-6 -5 L-18 -15" stroke="#2C3E50" stroke-width="4" stroke-linecap="round"/>
    <path d="M6 -5 L15 -12" stroke="#2C3E50" stroke-width="4" stroke-linecap="round"/>
    <path d="M-3 10 L-10 28" stroke="#2C3E50" stroke-width="4" stroke-linecap="round"/>
    <path d="M3 10 L12 25" stroke="#2C3E50" stroke-width="4" stroke-linecap="round"/>
    <line x1="-15" y1="-12" x2="-25" y2="20" stroke="#7F8C8D" stroke-width="2"/>
    <line x1="12" y1="-9" x2="18" y2="18" stroke="#7F8C8D" stroke-width="2"/>
  </g>
  
  <!-- Hiker 2 - Summit -->
  <g transform="translate(1150, 420)" fill="#2C3E50">
    <ellipse cx="0" cy="0" rx="5" ry="10"/>
    <circle cx="0" cy="-15" r="6"/>
    <path d="M-5 -5 L-15 -25" stroke="#2C3E50" stroke-width="3" stroke-linecap="round"/>
    <path d="M5 -5 L18 -20" stroke="#2C3E50" stroke-width="3" stroke-linecap="round"/>
    <path d="M-2 8 L-6 20" stroke="#2C3E50" stroke-width="3" stroke-linecap="round"/>
    <path d="M2 8 L8 18" stroke="#2C3E50" stroke-width="3" stroke-linecap="round"/>
    <line x1="18" y1="-20" x2="18" y2="-50" stroke="#7F8C8D" stroke-width="1.5"/>
    <path d="M18 -50 L35 -43 L18 -36 Z" fill="#E74C3C"/>
  </g>
  
  <!-- Hiker 3 - Returning -->
  <g transform="translate(550, 950)" fill="#2C3E50">
    <ellipse cx="0" cy="0" rx="5" ry="10"/>
    <circle cx="0" cy="-14" r="5.5"/>
    <rect x="-10" y="-6" width="7" height="12" rx="2"/>
    <path d="M-5 -4 L-12 5" stroke="#2C3E50" stroke-width="3" stroke-linecap="round"/>
    <path d="M5 -4 L12 5" stroke="#2C3E50" stroke-width="3" stroke-linecap="round"/>
    <path d="M-2 8 L-8 22" stroke="#2C3E50" stroke-width="3" stroke-linecap="round"/>
    <path d="M2 8 L6 20" stroke="#2C3E50" stroke-width="3" stroke-linecap="round"/>
  </g>
  
  <!-- Distant Hikers -->
  <g fill="#6B9DB5" fill-opacity="0.6">
    <g transform="translate(900, 560)">
      <circle cx="0" cy="-6" r="3"/>
      <ellipse cx="0" cy="2" rx="3" ry="6"/>
      <path d="M-3 6 L-6 16" stroke="#6B9DB5" stroke-width="2"/>
      <path d="M3 6 L6 16" stroke="#6B9DB5" stroke-width="2"/>
    </g>
    <g transform="translate(1000, 580)">
      <circle cx="0" cy="-5" r="2.5"/>
      <ellipse cx="0" cy="2" rx="2.5" ry="5"/>
      <path d="M-2 5 L-4 13" stroke="#6B9DB5" stroke-width="1.5"/>
      <path d="M2 5 L5 13" stroke="#6B9DB5" stroke-width="1.5"/>
    </g>
  </g>
  
  <!-- Large Snowflakes -->
  <g stroke="#FFFFFF" stroke-width="1.5" fill="none" stroke-linecap="round">
    <g transform="translate(180, 350)">
      <line x1="0" y1="-8" x2="0" y2="8"/>
      <line x1="-7" y1="-4" x2="7" y2="4"/>
      <line x1="-7" y1="4" x2="7" y2="-4"/>
      <circle cx="0" cy="0" r="2"/>
    </g>
    <g transform="translate(420, 280)">
      <line x1="0" y1="-10" x2="0" y2="10"/>
      <line x1="-8.7" y1="-5" x2="8.7" y2="5"/>
      <line x1="-8.7" y1="5" x2="8.7" y2="-5"/>
      <circle cx="0" cy="0" r="2.5"/>
    </g>
    <g transform="translate(750, 400)">
      <line x1="0" y1="-7" x2="0" y2="7"/>
      <line x1="-6" y1="-3.5" x2="6" y2="3.5"/>
      <line x1="-6" y1="3.5" x2="6" y2="-3.5"/>
      <circle cx="0" cy="0" r="1.8"/>
    </g>
    <g transform="translate(1100, 320)">
      <line x1="0" y1="-9" x2="0" y2="9"/>
      <line x1="-7.8" y1="-4.5" x2="7.8" y2="4.5"/>
      <line x1="-7.8" y1="4.5" x2="7.8" y2="-4.5"/>
      <circle cx="0" cy="0" r="2.2"/>
    </g>
    <g transform="translate(1400, 380)">
      <line x1="0" y1="-8" x2="0" y2="8"/>
      <line x1="-7" y1="-4" x2="7" y2="4"/>
      <line x1="-7" y1="4" x2="7" y2="-4"/>
      <circle cx="0" cy="0" r="2"/>
    </g>
    <g transform="translate(1700, 300)">
      <line x1="0" y1="-11" x2="0" y2="11"/>
      <line x1="-9.5" y1="-5.5" x2="9.5" y2="5.5"/>
      <line x1="-9.5" y1="5.5" x2="9.5" y2="-5.5"/>
      <circle cx="0" cy="0" r="2.8"/>
    </g>
  </g>
  
  <!-- Medium Snowflakes -->
  <g stroke="#FFFFFF" stroke-width="1" fill="none" stroke-opacity="0.8">
    <g transform="translate(120, 450)"><line x1="0" y1="-5" x2="0" y2="5"/><line x1="-4.3" y1="-2.5" x2="4.3" y2="2.5"/><line x1="-4.3" y1="2.5" x2="4.3" y2="-2.5"/></g>
    <g transform="translate(280, 520)"><line x1="0" y1="-6" x2="0" y2="6"/><line x1="-5.2" y1="-3" x2="5.2" y2="3"/><line x1="-5.2" y1="3" x2="5.2" y2="-3"/></g>
    <g transform="translate(500, 480)"><line x1="0" y1="-5" x2="0" y2="5"/><line x1="-4.3" y1="-2.5" x2="4.3" y2="2.5"/><line x1="-4.3" y1="2.5" x2="4.3" y2="-2.5"/></g>
    <g transform="translate(680, 550)"><line x1="0" y1="-7" x2="0" y2="7"/><line x1="-6" y1="-3.5" x2="6" y2="3.5"/><line x1="-6" y1="3.5" x2="6" y2="-3.5"/></g>
    <g transform="translate(850, 490)"><line x1="0" y1="-5" x2="0" y2="5"/><line x1="-4.3" y1="-2.5" x2="4.3" y2="2.5"/><line x1="-4.3" y1="2.5" x2="4.3" y2="-2.5"/></g>
    <g transform="translate(1000, 560)"><line x1="0" y1="-6" x2="0" y2="6"/><line x1="-5.2" y1="-3" x2="5.2" y2="3"/><line x1="-5.2" y1="3" x2="5.2" y2="-3"/></g>
    <g transform="translate(1180, 510)"><line x1="0" y1="-5" x2="0" y2="5"/><line x1="-4.3" y1="-2.5" x2="4.3" y2="2.5"/><line x1="-4.3" y1="2.5" x2="4.3" y2="-2.5"/></g>
    <g transform="translate(1350, 580)"><line x1="0" y1="-6" x2="0" y2="6"/><line x1="-5.2" y1="-3" x2="5.2" y2="3"/><line x1="-5.2" y1="3" x2="5.2" y2="-3"/></g>
    <g transform="translate(1520, 530)"><line x1="0" y1="-5" x2="0" y2="5"/><line x1="-4.3" y1="-2.5" x2="4.3" y2="2.5"/><line x1="-4.3" y1="2.5" x2="4.3" y2="-2.5"/></g>
    <g transform="translate(1850, 480)"><line x1="0" y1="-7" x2="0" y2="7"/><line x1="-6" y1="-3.5" x2="6" y2="3.5"/><line x1="-6" y1="3.5" x2="6" y2="-3.5"/></g>
  </g>
  
  <!-- Small Snowflakes (scattered) -->
  <g fill="#FFFFFF" fill-opacity="0.6">
    <circle cx="100" cy="320" r="1.5"/>
    <circle cx="350" cy="400" r="1.2"/>
    <circle cx="580" cy="350" r="1.5"/>
    <circle cx="820" cy="420" r="1.2"/>
    <circle cx="1050" cy="380" r="1.5"/>
    <circle cx="1280" cy="450" r="1.2"/>
    <circle cx="1500" cy="390" r="1.5"/>
    <circle cx="1750" cy="430" r="1.2"/>
    <circle cx="200" cy="580" r="1"/>
    <circle cx="450" cy="620" r="1.2"/>
    <circle cx="700" cy="600" r="1"/>
    <circle cx="950" cy="650" r="1.2"/>
    <circle cx="1200" cy="610" r="1"/>
    <circle cx="1450" cy="640" r="1.2"/>
    <circle cx="1700" cy="600" r="1"/>
  </g>
  
  <!-- Snowflake Trails -->
  <g stroke="#FFFFFF" stroke-width="0.5" fill="none" stroke-opacity="0.3">
    <path d="M180 350 Q190 380 175 420 Q160 460 180 500"/>
    <path d="M420 280 Q440 320 420 370 Q400 420 430 480"/>
    <path d="M1100 320 Q1080 370 1100 420 Q1120 470 1090 530"/>
    <path d="M1700 300 Q1720 350 1690 400 Q1660 450 1700 510"/>
  </g>
  
  <!-- Color Palette Section -->
  <g transform="translate(0, 1300)">
    <text x="1000" y="50" font-family="system-ui, sans-serif" font-size="28" font-weight="700" fill="#FFFFFF" text-anchor="middle">Snow Mountain Theme</text>
    <text x="1000" y="80" font-family="system-ui, sans-serif" font-size="14" fill="#B8D4E3" text-anchor="middle">Pure Winter Atmosphere</text>
    
    <rect x="100" y="110" width="1800" height="300" fill="#0D2137" rx="12" filter="url(#shadow)"/>
    
    <!-- Primary Colors -->
    <g transform="translate(200, 150)">
      <text x="0" y="0" font-family="system-ui, sans-serif" font-size="12" fill="#7FB3D3">Primary Colors</text>
      
      <rect x="0" y="20" width="80" height="80" fill="#1A3A52" rx="8"/>
      <text x="40" y="120" font-family="system-ui, sans-serif" font-size="10" fill="#7FB3D3" text-anchor="middle">Night Sky</text>
      <text x="40" y="135" font-family="monospace" font-size="9" fill="#5D6D7E" text-anchor="middle">#1A3A52</text>
      
      <rect x="100" y="20" width="80" height="80" fill="#FFFDE7" rx="8"/>
      <text x="140" y="120" font-family="system-ui, sans-serif" font-size="10" fill="#7FB3D3" text-anchor="middle">Moonlight</text>
      <text x="140" y="135" font-family="monospace" font-size="9" fill="#5D6D7E" text-anchor="middle">#FFFDE7</text>
      
      <rect x="200" y="20" width="80" height="80" fill="#FFFFFF" rx="8"/>
      <text x="240" y="120" font-family="system-ui, sans-serif" font-size="10" fill="#7FB3D3" text-anchor="middle">Snow White</text>
      <text x="240" y="135" font-family="monospace" font-size="9" fill="#5D6D7E" text-anchor="middle">#FFFFFF</text>
      
      <rect x="300" y="20" width="80" height="80" fill="#B8D4E3" rx="8"/>
      <text x="340" y="120" font-family="system-ui, sans-serif" font-size="10" fill="#7FB3D3" text-anchor="middle">Ice Blue</text>
      <text x="340" y="135" font-family="monospace" font-size="9" fill="#5D6D7E" text-anchor="middle">#B8D4E3</text>
      
      <rect x="400" y="20" width="80" height="80" fill="#E74C3C" rx="8"/>
      <text x="440" y="120" font-family="system-ui, sans-serif" font-size="10" fill="#7FB3D3" text-anchor="middle">Camp Red</text>
      <text x="440" y="135" font-family="monospace" font-size="9" fill="#5D6D7E" text-anchor="middle">#E74C3C</text>
      
      <rect x="500" y="20" width="80" height="80" fill="#4ECDC4" rx="8"/>
      <text x="540" y="120" font-family="system-ui, sans-serif" font-size="10" fill="#7FB3D3" text-anchor="middle">Aurora</text>
      <text x="540" y="135" font-family="monospace" font-size="9" fill="#5D6D7E" text-anchor="middle">#4ECDC4</text>
    </g>
    
    <!-- Accent Colors -->
    <g transform="translate(900, 150)">
      <text x="0" y="0" font-family="system-ui, sans-serif" font-size="12" fill="#7FB3D3">Accent Colors</text>
      
      <rect x="0" y="20" width="60" height="60" fill="#8BAFC1" rx="6"/>
      <text x="30" y="100" font-family="system-ui, sans-serif" font-size="9" fill="#7FB3D3" text-anchor="middle">Peak Gray</text>
      <text x="30" y="112" font-family="monospace" font-size="8" fill="#5D6D7E" text-anchor="middle">#8BAFC1</text>
      
      <rect x="80" y="20" width="60" height="60" fill="#D4E8F0" rx="6"/>
      <text x="110" y="100" font-family="system-ui, sans-serif" font-size="9" fill="#7FB3D3" text-anchor="middle">Snow Ground</text>
      <text x="110" y="112" font-family="monospace" font-size="8" fill="#5D6D7E" text-anchor="middle">#D4E8F0</text>
      
      <rect x="160" y="20" width="60" height="60" fill="#4A7C9B" rx="6"/>
      <text x="190" y="100" font-family="system-ui, sans-serif" font-size="9" fill="#7FB3D3" text-anchor="middle">Sky Blue</text>
      <text x="190" y="112" font-family="monospace" font-size="8" fill="#5D6D7E" text-anchor="middle">#4A7C9B</text>
      
      <rect x="240" y="20" width="60" height="60" fill="#2C3E50" rx="6"/>
      <text x="270" y="100" font-family="system-ui, sans-serif" font-size="9" fill="#7FB3D3" text-anchor="middle">Silhouette</text>
      <text x="270" y="112" font-family="monospace" font-size="8" fill="#5D6D7E" text-anchor="middle">#2C3E50</text>
      
      <rect x="320" y="20" width="60" height="60" fill="#C0392B" rx="6"/>
      <text x="350" y="100" font-family="system-ui, sans-serif" font-size="9" fill="#7FB3D3" text-anchor="middle">Tent Dark</text>
      <text x="350" y="112" font-family="monospace" font-size="8" fill="#5D6D7E" text-anchor="middle">#C0392B</text>
    </g>
    
    <!-- Design Elements -->
    <g transform="translate(1400, 140)">
      <text x="0" y="0" font-family="system-ui, sans-serif" font-size="12" fill="#7FB3D3">Design Elements</text>
      
      <!-- Mountain Icon -->
      <g transform="translate(20, 20)">
        <path d="M0 50 L25 20 L50 50 Z" fill="#FFFFFF" stroke="#B8D4E3" stroke-width="1"/>
        <path d="M10 50 L25 30 L40 50 Z" fill="#D4E8F0"/>
        <circle cx="60" cy="40" r="6" fill="#FFFDE7"/>
        <g stroke="#FFFFFF" stroke-width="1" transform="translate(60, 15)">
          <line x1="0" y1="-4" x2="0" y2="4"/>
          <line x1="-3.5" y1="-2" x2="3.5" y2="2"/>
          <line x1="-3.5" y1="2" x2="3.5" y2="-2"/>
        </g>
      </g>
      
      <text x="0" y="100" font-family="system-ui, sans-serif" font-size="10" fill="#ABB2B9">Mountain</text>
      <text x="0" y="115" font-family="system-ui, sans-serif" font-size="10" fill="#ABB2B9">Snowflake</text>
      <text x="0" y="130" font-family="system-ui, sans-serif" font-size="10" fill="#ABB2B9">Cloud</text>
      <text x="0" y="145" font-family="system-ui, sans-serif" font-size="10" fill="#ABB2B9">Silhouette</text>
      
      <!-- Hiker Icon -->
      <g transform="translate(120, 35)" fill="#2C3E50">
        <circle cx="0" cy="-12" r="4"/>
        <ellipse cx="0" cy="0" rx="3.5" ry="7"/>
        <path d="M-3 5 L-6 15" stroke="#2C3E50" stroke-width="2.5" stroke-linecap="round"/>
        <path d="M3 5 L6 15" stroke="#2C3E50" stroke-width="2.5" stroke-linecap="round"/>
        <path d="M-4 -3 L-10 -10" stroke="#2C3E50" stroke-width="2" stroke-linecap="round"/>
        <path d="M4 -3 L10 -10" stroke="#2C3E50" stroke-width="2" stroke-linecap="round"/>
      </g>
      
      <!-- Cloud Icon -->
      <g transform="translate(220, 40)">
        <ellipse cx="0" cy="0" rx="20" ry="12" fill="#FFFFFF"/>
        <ellipse cx="-15" cy="5" rx="12" ry="10" fill="#FFFFFF"/>
        <ellipse cx="15" cy="5" rx="12" ry="10" fill="#FFFFFF"/>
      </g>
    </g>
  </g>
  
  <!-- Footer -->
  <text x="1000" y="1750" font-family="system-ui, sans-serif" font-size="12" fill="#5D6D7E" text-anchor="middle">Layout 3.0 - Snow Mountain Theme</text>
</svg>
